<?xml version="1.0" encoding="utf-8"?>
<svg version="1.1" xmlns:xlink="http://www.w3.org/1999/xlink" width="15px" height="16px" xmlns="http://www.w3.org/2000/svg">
  <g transform="matrix(1 0 0 1 -584 -78 )">
    <path d="M 14.6464646464646 11.959595959596  C 14.8821548821549 12.2109988776655  15 12.5162738496072  15 12.8754208754209  C 15 13.2345679012346  14.8821548821549 13.5398428731762  14.6464646464646 13.7912457912458  L 12.9292929292929 15.6228956228956  C 12.6936026936027 15.8742985409652  12.4074074074074 16  12.0707070707071 16  C 11.7340067340067 16  11.4478114478114 15.8742985409652  11.2121212121212 15.6228956228956  L 7.5 11.6632996632997  L 3.78787878787879 15.6228956228956  C 3.55218855218855 15.8742985409652  3.26599326599327 16  2.92929292929293 16  C 2.59259259259259 16  2.30639730639731 15.8742985409652  2.07070707070707 15.6228956228956  L 0.353535353535354 13.7912457912458  C 0.117845117845118 13.5398428731762  0 13.2345679012346  0 12.8754208754209  C 0 12.5162738496072  0.117845117845118 12.2109988776655  0.353535353535354 11.959595959596  L 4.06565656565657 8  L 0.353535353535354 4.04040404040404  C 0.117845117845118 3.78900112233445  0 3.48372615039282  0 3.12457912457912  C 0 2.76543209876543  0.117845117845118 2.46015712682379  0.353535353535354 2.20875420875421  L 2.07070707070707 0.377104377104377  C 2.30639730639731 0.125701459034792  2.59259259259259 0  2.92929292929293 0  C 3.26599326599327 0  3.55218855218855 0.125701459034792  3.78787878787879 0.377104377104377  L 7.5 4.33670033670034  L 11.2121212121212 0.377104377104377  C 11.4478114478114 0.125701459034792  11.7340067340067 0  12.0707070707071 0  C 12.4074074074074 0  12.6936026936027 0.125701459034792  12.9292929292929 0.377104377104377  L 14.6464646464646 2.20875420875421  C 14.8821548821549 2.46015712682379  15 2.76543209876543  15 3.12457912457912  C 15 3.48372615039282  14.8821548821549 3.78900112233445  14.6464646464646 4.04040404040404  L 10.9343434343434 8  L 14.6464646464646 11.959595959596  Z " fill-rule="nonzero" fill="#000000" stroke="none" transform="matrix(1 0 0 1 584 78 )" />
  </g>
</svg>