<?xml version="1.0" encoding="utf-8"?>
<svg version="1.1" xmlns:xlink="http://www.w3.org/1999/xlink" width="16px" height="14px" xmlns="http://www.w3.org/2000/svg">
  <g transform="matrix(1 0 0 1 -185 -221 )">
    <path d="M 15.6228956228956 10.4646464646465  C 15.8742985409652 10.6846240179573  16 10.9517396184063  16 11.2659932659933  C 16 11.5802469135802  15.8742985409652 11.8473625140292  15.6228956228956 12.0673400673401  L 13.7912457912458 13.6700336700337  C 13.5398428731762 13.8900112233446  13.2345679012346 14  12.8754208754209 14  C 12.5162738496072 14  12.2109988776655 13.8900112233446  11.959595959596 13.6700336700337  L 8 10.2053872053872  L 4.04040404040404 13.6700336700337  C 3.78900112233446 13.8900112233446  3.48372615039282 14  3.12457912457912 14  C 2.76543209876543 14  2.46015712682379 13.8900112233446  2.20875420875421 13.6700336700337  L 0.377104377104377 12.0673400673401  C 0.125701459034792 11.8473625140292  0 11.5802469135802  0 11.2659932659933  C 0 10.9517396184063  0.125701459034792 10.6846240179573  0.377104377104377 10.4646464646465  L 4.33670033670034 7  L 0.377104377104377 3.53535353535353  C 0.125701459034792 3.31537598204265  0 3.04826038159371  0 2.73400673400673  C 0 2.41975308641975  0.125701459034792 2.15263748597082  0.377104377104377 1.93265993265993  L 2.20875420875421 0.32996632996633  C 2.46015712682379 0.109988776655443  2.76543209876543 0  3.12457912457912 0  C 3.48372615039282 0  3.78900112233446 0.109988776655443  4.04040404040404 0.32996632996633  L 8 3.7946127946128  L 11.959595959596 0.32996632996633  C 12.2109988776655 0.109988776655443  12.5162738496072 0  12.8754208754209 0  C 13.2345679012346 0  13.5398428731762 0.109988776655443  13.7912457912458 0.32996632996633  L 15.6228956228956 1.93265993265993  C 15.8742985409652 2.15263748597082  16 2.41975308641975  16 2.73400673400673  C 16 3.04826038159371  15.8742985409652 3.31537598204265  15.6228956228956 3.53535353535353  L 11.6632996632997 7  L 15.6228956228956 10.4646464646465  Z " fill-rule="nonzero" fill="#000000" stroke="none" transform="matrix(1 0 0 1 185 221 )" />
  </g>
</svg>